# xmcd CD database file
#
# Track frame offsets:
#	150
#	20335
#	58187
#	73078
#	99897
#	122840
#	152272
#	183989
#	200679
#
# Disc length: 2921 seconds
#
# Revision: 0
# Processed by: cddbd v1.5.2PL0 Copyright (c) Steve Scherf et al.
# Submitted via: CDex 1.51
#
DISCID=730b6709
DTITLE=Various Artist - EL  CAPITAN  III
DYEAR=2008
DGENRE=Jazz
TTITLE0=ONCE THE BIRDS CONFESSED TO ME - Mode plagal
TTITLE1=THINGS AIN'T WHAT THEY USED TO BE - George Kontrafouris Trio
TTITLE2=13 - Blues Bug
TTITLE3=ASWAN - Vasilis Rakopoulos
TTITLE4=BLUES 4 - Achileas Diamantis
TTITLE5=MILOS - Takis Barberis
TTITLE6=INFRA RAE (Hank Mobley) - Stratos Vougas Quartet
TTITLE7=PARADISE IS AN INSTANT - Constantinos Baltazanis
TTITLE8=JORDU - George Theodosiadis Jazz Group
EXTD=YEAR: 2008
EXTT0=
EXTT1=
EXTT2=
EXTT3=
EXTT4=
EXTT5=
EXTT6=
EXTT7=
EXTT8=
PLAYORDER=
